<?xml version="1.0" encoding="UTF-8"?>
<svg id="Layer_1" data-name="Layer 1" xmlns="http://www.w3.org/2000/svg" viewBox="0 0 823.9 958.89">
  <defs>
    <style>
      .cls-1 {
        fill: none;
        stroke: #000;
        stroke-miterlimit: 10;
      }

      .cls-2 {
        stroke-width: 0px;
      }
    </style>
  </defs>
  <g id="Base">
    <path id="taguig" class="cls-1" d="m823.33,404.69c-17.81,9.48-25.39-.75-34.48-10.23-3.41-4.92-4.93-7.58-7.2-9.47-2.28-1.9.38-1.9-5.69-4.55-5.68.38-7.2-6.06-14.78-13.64-7.58-2.65-9.09-24.63-11.74-24.63s-9.48-2.28-14.02-3.41c-4.55-1.14-7.96.75-12.89,4.92-4.93,4.17-13.26,7.2-16.67,10.23,2.27,9.86-7.58,18.57-15.16,18.19-7.58-.38-12.13,1.14-20.84,20.47-8.72,19.32-14.78,45.09-13.27,51.15,13.65,7.2,17.81,14.78,16.68,16.68-1.14,1.89-3.41.76-2.28,14.4-3.79,6.82-7.95,10.23-6.82,27.28-3.41,21.6-26.9,50.4-32.97,55.71-6.06,5.3-9.47-3.79-9.47-3.79,0,0-15.91,6.82-24.25,6.06-8.34-.76-10.23,3.79-11.75,9.48-1.51,5.68-6.82,4.54-11.37,4.92-4.54.38-8.33-4.55-14.4-2.27-6.06,2.27-8.33,0-19.7-5.69-3.41-7.58-8.34-13.26-15.54-15.53-7.2-2.28-1.89-21.22-5.3-28.05-7.58-6.82-13.65,12.13-18.57,27.29-4.93,15.16-5.69,7.58-10.23,5.68-4.55-1.89-18.57-2.27-24.26-1.13-5.68,1.13-34.48,59.49-37.89,72.75-3.41,13.27-34.49,114.45-43.2,123.92-8.72,9.47,2.65,23.12,3.41,25.77-5.31,6.06-1.9,15.54-4.17,18.57,1.52,5.3,6.06,8.33,1.14,11.74-4.93,3.41-3.41,8.72-4.55,15.92,6.06,5.68,4.55,10.23,3.03,12.88-6.44,1.52-3.79,16.3-4.17,20.09s-14.4,33.72-16.67,37.51c-2.65,3.04-1.14,9.1-1.14,9.1,0,0-22.73,15.91-10.23,22.36,12.51,6.44,4.93,6.82-2.65,8.71-6.82.76-6.07-.38-11.37,8.72-5.31,9.09-7.58,1.14-12.51,3.03-4.92,1.89-4.54.38-9.47-2.27-7.2-7.58-8.34-3.79-12.88.75-7.58-.37-5.69,4.17-8.72,9.1-3.03,4.93-9.09,2.27-19.33,4.55-10.23,2.27-13.64-4.93-16.67-10.61,2.27-12.89-.38-11.37-6.06-10.61-17.43,4.92-4.93-6.07-4.55-9.86.38-3.79,7.96-3.79,12.13-2.27,1.89-13.64-2.66-12.13-12.89-13.64-18.19,1.89-12.5-3.79-13.64-4.17-8.34,1.51-2.27-7.58-1.52-10.23.76-2.66,12.51,0,12.51,0,0,0,1.14-2.28,1.14-8.34,6.06-13.26,4.16-28.42,1.51-32.21-23.11-43.58-16.29-69.35-15.16-92.84,1.14-23.5,3.79-25.01,7.58-39.03,8.72-15.92,2.28-39.04,3.41-55.33-2.27-42.06-9.47-34.86-22.35-40.93-10.24-1.13-18.19-14.02-23.5-18.19-5.3-4.16-13.64-4.54-24.63-12.12-10.99-7.96-23.5-2.28-31.45-.76-7.96,1.52-50.4-91.33-56.09-94.36-5.68-3.03-71.81-126.95-80.14-141.54-10.8-14.02,2.84-12.31,4.54-13.45-.19-3.22,7.77-3.03,9.86-2.27-1.9-2.46,5.68-3.79,7.38-4.17.76-3.03.57-5.49,2.47-4.74,1.89.76,10.99.57,14.21-1.32,3.22-4.74,9.09-7.58,10.23-7.39s5.68-.95,7.39-2.84c2.27-5.69,7.39-9.48,8.72-9.29,1.32.19,6.06-2.65,7.95-3.03,3.98-5.12,14.02-1.9,17.81.57,4.93-.95,13.27,5.11,15.92,4.92.57-.94,6.63-4.92,13.07-13.64,3.03-5.3,23.5-7.2,29.94-6.82s2.27-7.96,4.93-7.96,5.3-4.54,6.06-7.95c2.65-9.48,1.14-16.68,6.06-16.68s8.34-7.58,13.27-9.47c4.92-1.9,14.02,2.27,16.29,2.27.76-1.89,8.72-3.79,15.16-4.92,7.96.37,5.68-6.07,7.96-7.2,7.58.75,9.09-4.55,6.44-10.24-.76-9.85-10.99-38.65-12.89-41.3-10.61-8.34-9.47-18.95-12.5-35.24,0-19.71-5.31-23.88-12.13-36.38-1.39-2.56-2.62-4.39-3.69-5.68-4.01-4.85-5.79-2.11-5.9-1.91.21-.41,5.08-9.69,6.56-14.14,1.52-4.55-3.28-15.66-3.28-15.66,0,0,45.47,17.43,50.78,18.95-.26-3.29,4.8-6.83,10.61-11.37,5.81-4.55,6.56-12.89,6.56-16.68s7.58-6.82,8.85-9.34c1.26-2.53-2.53-3.04,1.77-8.59,4.29-5.56-1.02-9.6-5.06-10.87-5.56-1.51-15.16-11.62-16.17-17.93-1.01-6.32-6.06-11.12-8.33-16.68-2.28-5.56,1.01-10.1,4.29-9.34,3.29.75,9.85-1.02,16.42-2.53,6.57-1.52,35.12,12.88,35.12,12.88.76,4.42,25.39,15.67,37.14,19.83,23.49-3.41,47.74,19.71,49.26,21.98,1.51,2.28,5.68,7.58,25.39,14.4,33.72,4.55,29.18,17.06,28.8,27.67-.38,10.61-17.43,32.59-23.88,43.95-6.44,11.37-.75,17.82,12.13,22.36,29.56,7.58,15.16,13.27,10.99,19.71-9.47-1.52-10.99,10.99-10.99,10.99-.38,9.09-.38,12.12-10.99,20.46-2.65,18.57-7.58,20.08-13.64,22.36-6.06,2.27-6.06-21.22-11.75-24.25-20.08,3.03-11.37,11.74,1.14,21.6,12.5,9.85,1.89,9.85,4.93,20.46,3.03,10.61,31.07,21.22,40.16,25.77,22.36,1.89,23.5-.76,21.98-7.2-1.51-6.44,3.03-8.72,13.27-5.69,10.23,3.03,11.74.38,17.05-1.89-5.31-4.93,3.79-3.79,10.23-1.52,6.44,2.28,2.27-3.03,2.27-5.3s-.38-9.86-5.68-7.96c-5.31,1.89-6.82-.38-8.34-5.31-1.51-4.92,20.47-13.26,26.15-13.26s4.17-6.82,8.34-15.16c15.15-12.88,15.53-.38,14.02,13.27,4.17,20.84,23.11,15.91,26.9,15.53,3.79-.38,6.07-7.2,11.75-12.12,15.54-10.23,21.6,4.17,24.63,3.79,3.79-4.93,9.1-8.34,21.98-11.37,8.34,0,23.87-.76,28.42-3.41,4.55-2.66,15.16-9.1,19.71-7.96,4.54,1.14,14.4,3.79,21.22,3.41,21.6-1.52,26.15,12.88,27.28,23.49-3.03,21.23,14.02,26.15,18.57,34.49,2.27,13.64,18.19,19.7,24.25,24.63,9.1-.38,20.09,13.64,36.38,27.28,20.09,13.65,15.54,21.23,9.86,31.84-5.69,10.61.75,22.73,9.85,27.66,11.37,1.52,12.5,13.26,13.26,16.67Z"/>
    <g id="fort-bonifacio">
      <path class="cls-2" d="m306.51,58.67c3.37.39,12.24,6.42,18.17,10.45,2.67,1.81,4.98,3.38,6.29,4.11,2.17,1.21,5.39,6.14,8.22,10.49,3.31,5.08,5.42,8.22,7.11,8.78.82.27,2.36.56,4.3.93,5.02.94,14.36,2.69,16.4,5.75,1.11,1.67,2.36,2.43,3.27,3,.9.55,1.11.73,1.13,1.15.05,1.07-1.07,3.33-1.92,4.94-.17.32-.15.72.05,1.02.18.27.36.53.52.77.58.86,1.31,1.93,1.2,2.21-.33.88-5.62,2.25-10.74,3.58-.19.05-.36.16-.5.3-2.16,2.43-2.16,6-2.15,9.44,0,3.46.01,6.45-2.1,7.5-2.7,1.35-4.2,4.24-3.58,6.87.64,2.7,3.19,4.31,6.84,4.31.75,0,1.56-.07,2.4-.2.95-.15,1.83-.3,2.64-.44,1.83-.31,3.27-.56,4.17-.56.26,0,.41.02.51.04-.12,1.24-3.44,5.92-5.25,8.49-8.86,12.51-22.39,21.07-26.28,22.37-.29.1-.52.32-.63.62-1.03,2.91-1.12,6.02-1.21,9.04-.19,6.35-.36,12.35-8.47,17.22-.84.5-1.68,1.01-2.53,1.51-12.41,7.4-25.24,15.05-24.22,23.71.87,7.36,5.65,26.25,17.42,30.16-9.01,6.96-12.95,11.87-12.36,15.36.38,2.27-3.01,5.48-9.34,6.95-1.92.44-3.61,1.84-5.03,4.17-3.1,5.06-4.31,13.55-3.52,18.62-4.51.27-11.29.31-18.02.31-1.92,0-3.87,0-5.81,0-1.93,0-3.85,0-5.73,0-20.9,0-21.93.58-22.25,1.89-.49,1.94-2.74,8.27-11.39,8.27-1.28,0-2.67-.14-4.13-.42-7.91-1.52-23.83-2.06-36.1-2.06-10.85,0-20,.4-23.88,1.05-4.73.79-15.94,7.11-26.64,15.02-6.02,4.45-20.46,15.84-24.63,25.45-6.77,14.51-10.05,19.68-28.56,22.68-.12.02-.24.06-.34.12-23.45,13.6-44.99,32.64-47.85,35.21-4.05-7.29-23.84-42.92-26.47-48.36-.03-.06-.06-.12-.1-.17-3.9-5.13-4.11-7.69-3.6-8.94.78-1.9,3.89-2.35,5.95-2.65.64-.09,1.2-.17,1.64-.29.3-.08.55-.29.67-.58.62-1.46,2.12-2.18,4.58-2.18,1.17,0,2.53.16,4.16.5.07.01.13.02.2.02.28,0,.55-.12.74-.32.24-.26.32-.62.22-.96-.12-.43-.05-.63.03-.77.54-.9,3.12-1.43,5.39-1.89.4-.08.8-.16,1.21-.25.39-.08.69-.39.77-.77.78-3.73,1.06-3.8,1.45-3.9,0,0,.02,0,.02,0,1.04.31,2.23.46,3.62.46,2.74,0,6.19-.59,10.87-1.85.24-.07.45-.22.58-.43,2.66-4.2,6.62-5.95,9.46-6.9.41.07.83.13,1.24.13,1.32,0,2.23-.55,4.45-1.87.59-.35,1.29-.77,2.14-1.26.16-.09.29-.23.38-.39,2.91-5.45,6.07-8.1,7.96-8.75.08,0,.16,0,.24,0,1.73,0,3.23-.77,5.14-1.75.83-.43,1.78-.91,2.84-1.38.11-.05.22-.12.31-.21,1.54-1.54,3.64-2.32,6.24-2.32,4.96,0,9.83,2.74,10.36,3.05.15.09.33.13.5.13.11,0,.22-.02.33-.06.33-.12.73-.17,1.19-.17,2.57,0,6.42,1.78,9.52,3.21,1.83.84,3.41,1.57,4.61,1.91.09.02.18.04.27.04.23,0,.45-.08.63-.23,4.03-3.29,11.05-10,14.09-15.13,4.04-3.13,13.15-4.88,27.08-5.18l.66-.02c3.48-.09,4.08-.43,4.9-2.81.08-.23.17-.49.28-.78.03-.09.06-.19.06-.29.05-.89.15-2.73.25-3.6.28-.13.49-.34.64-.54,5.16-1.73,6.19-7.16,7.87-16.03l.03-.18c1.29-7.56,2.02-7.78,3.35-8.16.13-.04.26-.08.4-.12,2.88-.25,4.49-1.6,9.17-6.65.02-.02.03-.04.05-.05,1.71-2.14,4.35-3.22,7.84-3.22,4.11,0,8.4,1.47,10.71,2.26.56.19,1,.34,1.33.44.09.03.18.04.27.04.34,0,.67-.18.85-.48,1.29-2.11,10.82-3.82,14.27-4.42.48.11.95.17,1.41.17,4.28,0,6.18-4.73,7.21-7.26.02-.04.03-.08.05-.11,3.39,0,5.64-.83,6.87-2.53,1.76-2.42.88-5.86-.11-8.92-.84-9.96-9.95-35.49-12.68-41.43-.08-.17-.21-.32-.37-.42-6.74-4.31-11.11-17-12.3-35.74l-.03-.41c1.36-8.99-4.31-21.39-4.37-21.51-.89-1.85-8.2-13.85-10.75-18.01,3.68-.26,12.88-.85,20.45-.85,4.34,0,7.5.19,9.38.57,2.17.43,4.17.65,5.93.65,6.3,0,8.25-2.77,8.75-5.15,4.11,2.06,8.73,4.31,13.6,4.31,3.55,0,6.79-1.16,9.91-3.55,4.85-3.71,8.95-4.39,12.91-5.04,2.85-.47,5.55-.92,8.2-2.47.59-.34,1.13-.65,1.62-.93,2.32-1.31,3.6-2.03,3.61-3.35.01-1.52-1.74-2.59-6.39-5.33-1.31-5.04-1.59-12.54,1.83-17.7,1.86-2.8,4.57-4.45,8.05-4.91,3.86-.5,8-1.36,11.36-2.34,5.53-1.62,5.93-2.66,5.88-3.51-.09-1.45-2-1.73-5.27-1.73-.62,0-1.3.01-2,.04-.63-.04-2.58-2.53-2.53-4.14.01-.32.04-.43.51-.43.79,0,1.67.18,2.6.36.96.19,1.95.39,2.9.39,2.34,0,3.79-1.25,4.42-3.82m-71.06,52.59h0,0m-76.32,179.19h0,0M306.19,57.65c-.18,0-.35.02-.5.06-.51,3.03-1.89,3.79-3.6,3.79s-3.73-.76-5.49-.76c-3.54,0,0,6.57,2.02,6.57.74-.03,1.4-.04,2-.04,10.84,0-1.09,4.16-12.1,5.6-11.62,1.52-13.14,15.16-10.61,24.25,8.59,5.05,7.58,4.55,1.52,8.08s-12.63,1.01-21.22,7.58c-3.18,2.43-6.29,3.34-9.31,3.34-5.13,0-9.99-2.63-14.44-4.86,0,4.05-3.23,5.69-7.91,5.69-1.74,0-3.68-.23-5.73-.64-2.16-.43-5.67-.59-9.58-.59-9.81,0-22.16.97-22.16.97,0,0,10.51,17.14,11.56,19.32,1.04,2.18,5.49,13.26,4.26,21.03.28,4.26,1.52,29.84,12.79,37.04,2.75,5.97,11.85,31.63,12.6,41.21,1.48,4.54,2.87,10.25-5.79,10.25-.21,0-.43,0-.65-.01-.94,2.22-2.58,7.39-6.59,7.39-.43,0-.89-.06-1.37-.19-4.83.85-13.64,2.46-15.16,4.92-1.64-.47-7.06-2.74-12.32-2.74-3.26,0-6.45.87-8.62,3.59-4.64,5.02-6.07,6.15-8.62,6.35-2.08.66-3.03.19-4.54,9.1-1.71,9-2.65,14.11-7.58,15.53-.22.42-.39.49-.51.49-.07,0-.13-.02-.19-.02-.22,0-.31.4-.53,4.46-.95,2.56-.57,2.84-4.26,2.94-3.69.09-21.92.22-28.48,5.53-2.78,4.8-9.47,11.36-13.96,15.03-3.19-.89-10.1-5.15-14.4-5.15-.56,0-1.07.07-1.52.23-1.81-1.05-6.4-3.19-10.87-3.19-2.52,0-5.01.68-6.94,2.62-3.41,1.49-5.39,3.04-7.58,3.04-.12,0-.25,0-.37-.01-2.34.7-5.75,3.74-8.72,9.29-3.9,2.26-4.75,3-6.08,3-.37,0-.78-.06-1.31-.16-2.53.82-7.2,2.59-10.23,7.39-4.12,1.11-7.72,1.82-10.61,1.82-1.36,0-2.57-.16-3.6-.5-1.08.32-1.46-.06-2.47,4.74-4.16.88-8.2,1.39-7.38,4.17-1.4-.28-2.92-.52-4.36-.52-2.41,0-4.59.65-5.5,2.79-2.97.76-14.58.25-4.54,13.45,2.96,6.13,27.22,49.71,27.22,49.71l.51-.76s22.74-20.72,48-35.37c18.69-3.03,22.23-8.08,29.31-23.24,6.57-15.16,41.43-38.4,50.53-39.92,3.97-.66,13.33-1.03,23.71-1.03,13.4,0,28.51.62,35.91,2.04,1.58.3,3.02.44,4.32.44,9.51,0,11.91-7.25,12.36-9.03.25-1.01,9.98-1.14,21.28-1.14,3.77,0,7.71.01,11.54.01,7.65,0,14.84-.06,19.22-.39-1.52-6.06,1.01-21.22,7.58-22.74,6.57-1.52,10.61-5.05,10.11-8.08-.51-3.03,3.54-8.08,13.64-15.66-12.13-2.02-17.68-21.22-18.69-29.81-1.01-8.59,13.64-16.67,26.27-24.25,12.63-7.58,7.07-18.19,10.11-26.78,4.55-1.52,18.19-10.61,26.78-22.74,5.73-8.08,6.74-10.11,3.93-10.11-1.4,0-3.76.51-6.96,1.01-.81.13-1.56.19-2.24.19-7.4,0-7.43-6.97-2.81-9.28,5.05-2.53.51-12.63,4.55-17.18,13.64-3.54,12.63-3.54,9.6-8.08,4.55-8.59.51-5.56-2.53-10.11-3.03-4.55-18.19-6.06-21.22-7.07-3.03-1.01-10.61-16.67-15.16-19.2-4.38-2.43-20.48-14.71-25.27-14.71h0Z"/>
    </g>
  </g>
</svg>